<mxfile host="app.diagrams.net" agent="Mozilla/5.0 (Windows NT 10.0; Win64; x64) AppleWebKit/537.36 (KHTML, like Gecko) Chrome/127.0.0.0 Safari/537.36" version="24.7.8">
  <diagram name="Страница — 1" id="RX_mcGrhf_GAbJcaTPI9">
    <mxGraphModel dx="851" dy="814" grid="1" gridSize="10" guides="1" tooltips="1" connect="1" arrows="1" fold="1" page="1" pageScale="1" pageWidth="827" pageHeight="1169" math="0" shadow="0">
      <root>
        <mxCell id="0" />
        <mxCell id="1" parent="0" />
        <mxCell id="lrFD3jHJQZdfhSIiQudL-55" value="" style="rounded=0;whiteSpace=wrap;html=1;strokeColor=none;" vertex="1" parent="1">
          <mxGeometry x="10" y="790" width="510" height="290" as="geometry" />
        </mxCell>
        <mxCell id="lrFD3jHJQZdfhSIiQudL-54" value="" style="rounded=0;whiteSpace=wrap;html=1;strokeColor=none;" vertex="1" parent="1">
          <mxGeometry x="10" y="470" width="510" height="290" as="geometry" />
        </mxCell>
        <mxCell id="lrFD3jHJQZdfhSIiQudL-53" value="" style="rounded=0;whiteSpace=wrap;html=1;strokeColor=none;" vertex="1" parent="1">
          <mxGeometry x="10" y="40" width="500" height="400" as="geometry" />
        </mxCell>
        <mxCell id="lrFD3jHJQZdfhSIiQudL-1" value="" style="rounded=0;whiteSpace=wrap;html=1;glass=0;shadow=1;textShadow=0;" vertex="1" parent="1">
          <mxGeometry x="80" y="80" width="120" height="320" as="geometry" />
        </mxCell>
        <mxCell id="lrFD3jHJQZdfhSIiQudL-2" value="000000" style="text;html=1;align=center;verticalAlign=middle;whiteSpace=wrap;rounded=0;fontSize=14;" vertex="1" parent="1">
          <mxGeometry x="20" y="380" width="60" height="40" as="geometry" />
        </mxCell>
        <mxCell id="lrFD3jHJQZdfhSIiQudL-3" value="177777" style="text;html=1;align=center;verticalAlign=middle;whiteSpace=wrap;rounded=0;fontSize=14;" vertex="1" parent="1">
          <mxGeometry x="20" y="60" width="60" height="40" as="geometry" />
        </mxCell>
        <mxCell id="lrFD3jHJQZdfhSIiQudL-4" value="План 0" style="text;html=1;align=center;verticalAlign=middle;whiteSpace=wrap;rounded=0;fontSize=14;textShadow=1;" vertex="1" parent="1">
          <mxGeometry x="90" y="90" width="100" height="300" as="geometry" />
        </mxCell>
        <mxCell id="lrFD3jHJQZdfhSIiQudL-5" value="" style="rounded=0;whiteSpace=wrap;html=1;glass=0;shadow=1;textShadow=0;" vertex="1" parent="1">
          <mxGeometry x="210" y="80" width="120" height="320" as="geometry" />
        </mxCell>
        <mxCell id="lrFD3jHJQZdfhSIiQudL-6" value="План 1" style="text;html=1;align=center;verticalAlign=middle;whiteSpace=wrap;rounded=0;fontSize=14;textShadow=1;" vertex="1" parent="1">
          <mxGeometry x="220" y="90" width="100" height="300" as="geometry" />
        </mxCell>
        <mxCell id="lrFD3jHJQZdfhSIiQudL-7" value="" style="rounded=0;whiteSpace=wrap;html=1;glass=0;shadow=1;textShadow=0;" vertex="1" parent="1">
          <mxGeometry x="340" y="80" width="120" height="320" as="geometry" />
        </mxCell>
        <mxCell id="lrFD3jHJQZdfhSIiQudL-8" value="План 2" style="text;html=1;align=center;verticalAlign=middle;whiteSpace=wrap;rounded=0;fontSize=14;textShadow=1;" vertex="1" parent="1">
          <mxGeometry x="350" y="90" width="100" height="300" as="geometry" />
        </mxCell>
        <mxCell id="lrFD3jHJQZdfhSIiQudL-10" value="План 0" style="text;html=1;align=center;verticalAlign=middle;whiteSpace=wrap;rounded=0;fontSize=14;textShadow=1;" vertex="1" parent="1">
          <mxGeometry x="90" y="430" width="100" height="300" as="geometry" />
        </mxCell>
        <mxCell id="lrFD3jHJQZdfhSIiQudL-11" value="" style="rounded=0;whiteSpace=wrap;html=1;glass=1;shadow=1;textShadow=0;" vertex="1" parent="1">
          <mxGeometry x="80" y="480" width="120" height="200" as="geometry" />
        </mxCell>
        <mxCell id="lrFD3jHJQZdfhSIiQudL-12" value="" style="rounded=0;whiteSpace=wrap;html=1;glass=1;shadow=1;textShadow=0;" vertex="1" parent="1">
          <mxGeometry x="210" y="480" width="120" height="200" as="geometry" />
        </mxCell>
        <mxCell id="lrFD3jHJQZdfhSIiQudL-13" value="План 1" style="text;html=1;align=center;verticalAlign=middle;whiteSpace=wrap;rounded=0;fontSize=14;textShadow=1;" vertex="1" parent="1">
          <mxGeometry x="220" y="490" width="100" height="180" as="geometry" />
        </mxCell>
        <mxCell id="lrFD3jHJQZdfhSIiQudL-14" value="" style="rounded=0;whiteSpace=wrap;html=1;glass=1;shadow=1;textShadow=0;" vertex="1" parent="1">
          <mxGeometry x="340" y="480" width="120" height="200" as="geometry" />
        </mxCell>
        <mxCell id="lrFD3jHJQZdfhSIiQudL-15" value="План 2" style="text;html=1;align=center;verticalAlign=middle;whiteSpace=wrap;rounded=0;fontSize=14;textShadow=1;" vertex="1" parent="1">
          <mxGeometry x="350" y="490" width="100" height="180" as="geometry" />
        </mxCell>
        <mxCell id="lrFD3jHJQZdfhSIiQudL-16" value="План 0" style="text;html=1;align=center;verticalAlign=middle;whiteSpace=wrap;rounded=0;fontSize=14;textShadow=1;" vertex="1" parent="1">
          <mxGeometry x="90" y="490" width="100" height="180" as="geometry" />
        </mxCell>
        <mxCell id="lrFD3jHJQZdfhSIiQudL-17" value="000000" style="text;html=1;align=center;verticalAlign=middle;whiteSpace=wrap;rounded=0;fontSize=14;" vertex="1" parent="1">
          <mxGeometry x="20" y="670" width="60" height="20" as="geometry" />
        </mxCell>
        <mxCell id="lrFD3jHJQZdfhSIiQudL-18" value="" style="line;strokeWidth=1;html=1;" vertex="1" parent="1">
          <mxGeometry x="20" y="710" width="90" height="20" as="geometry" />
        </mxCell>
        <mxCell id="lrFD3jHJQZdfhSIiQudL-19" value="" style="endArrow=classic;html=1;rounded=0;entryX=0.5;entryY=1;entryDx=0;entryDy=0;" edge="1" parent="1" target="lrFD3jHJQZdfhSIiQudL-17">
          <mxGeometry width="50" height="50" relative="1" as="geometry">
            <mxPoint x="50" y="720" as="sourcePoint" />
            <mxPoint x="100" y="670" as="targetPoint" />
          </mxGeometry>
        </mxCell>
        <mxCell id="lrFD3jHJQZdfhSIiQudL-20" value="РА 176640" style="text;html=1;align=center;verticalAlign=middle;whiteSpace=wrap;rounded=0;fontSize=14;" vertex="1" parent="1">
          <mxGeometry x="20" y="720" width="80" height="30" as="geometry" />
        </mxCell>
        <mxCell id="lrFD3jHJQZdfhSIiQudL-21" value="" style="endArrow=classic;html=1;rounded=0;entryX=0.5;entryY=1;entryDx=0;entryDy=0;" edge="1" parent="1">
          <mxGeometry width="50" height="50" relative="1" as="geometry">
            <mxPoint x="300" y="720" as="sourcePoint" />
            <mxPoint x="300" y="690" as="targetPoint" />
          </mxGeometry>
        </mxCell>
        <mxCell id="lrFD3jHJQZdfhSIiQudL-22" value="РД 176642" style="text;html=1;align=center;verticalAlign=middle;whiteSpace=wrap;rounded=0;fontSize=14;" vertex="1" parent="1">
          <mxGeometry x="285" y="720" width="105" height="30" as="geometry" />
        </mxCell>
        <mxCell id="lrFD3jHJQZdfhSIiQudL-23" value="" style="line;strokeWidth=1;html=1;" vertex="1" parent="1">
          <mxGeometry x="270" y="710" width="130" height="20" as="geometry" />
        </mxCell>
        <mxCell id="lrFD3jHJQZdfhSIiQudL-24" value="" style="endArrow=classic;html=1;rounded=0;entryX=0.5;entryY=1;entryDx=0;entryDy=0;" edge="1" parent="1">
          <mxGeometry width="50" height="50" relative="1" as="geometry">
            <mxPoint x="370" y="720" as="sourcePoint" />
            <mxPoint x="370" y="690" as="targetPoint" />
          </mxGeometry>
        </mxCell>
        <mxCell id="lrFD3jHJQZdfhSIiQudL-26" value="Косвенный доступ к памяти со стороны ЦП" style="text;html=1;align=center;verticalAlign=middle;whiteSpace=wrap;rounded=0;fontSize=16;fontStyle=1;fillColor=default;" vertex="1" parent="1">
          <mxGeometry x="60" y="460" width="420" height="70" as="geometry" />
        </mxCell>
        <mxCell id="lrFD3jHJQZdfhSIiQudL-27" value="64К" style="text;html=1;align=center;verticalAlign=middle;whiteSpace=wrap;rounded=0;fontSize=12;fontColor=#999999;" vertex="1" parent="1">
          <mxGeometry x="460" y="220" width="40" height="40" as="geometry" />
        </mxCell>
        <mxCell id="lrFD3jHJQZdfhSIiQudL-28" value="байт" style="text;html=1;align=center;verticalAlign=middle;whiteSpace=wrap;rounded=0;fontSize=12;fontColor=#999999;" vertex="1" parent="1">
          <mxGeometry x="374" y="680" width="40" height="40" as="geometry" />
        </mxCell>
        <mxCell id="lrFD3jHJQZdfhSIiQudL-29" value="байт" style="text;html=1;align=center;verticalAlign=middle;whiteSpace=wrap;rounded=0;fontSize=12;fontColor=#999999;" vertex="1" parent="1">
          <mxGeometry x="250" y="680" width="50" height="40" as="geometry" />
        </mxCell>
        <mxCell id="lrFD3jHJQZdfhSIiQudL-30" value="" style="rounded=0;whiteSpace=wrap;html=1;glass=1;shadow=1;textShadow=0;" vertex="1" parent="1">
          <mxGeometry x="80" y="800" width="120" height="200" as="geometry" />
        </mxCell>
        <mxCell id="lrFD3jHJQZdfhSIiQudL-31" value="" style="rounded=0;whiteSpace=wrap;html=1;glass=1;shadow=1;textShadow=0;" vertex="1" parent="1">
          <mxGeometry x="210" y="800" width="120" height="200" as="geometry" />
        </mxCell>
        <mxCell id="lrFD3jHJQZdfhSIiQudL-32" value="План 1" style="text;html=1;align=center;verticalAlign=middle;whiteSpace=wrap;rounded=0;fontSize=14;textShadow=1;" vertex="1" parent="1">
          <mxGeometry x="220" y="810" width="100" height="180" as="geometry" />
        </mxCell>
        <mxCell id="lrFD3jHJQZdfhSIiQudL-33" value="" style="rounded=0;whiteSpace=wrap;html=1;glass=1;shadow=1;textShadow=0;" vertex="1" parent="1">
          <mxGeometry x="340" y="800" width="120" height="200" as="geometry" />
        </mxCell>
        <mxCell id="lrFD3jHJQZdfhSIiQudL-34" value="План 2" style="text;html=1;align=center;verticalAlign=middle;whiteSpace=wrap;rounded=0;fontSize=14;textShadow=1;" vertex="1" parent="1">
          <mxGeometry x="350" y="810" width="100" height="180" as="geometry" />
        </mxCell>
        <mxCell id="lrFD3jHJQZdfhSIiQudL-35" value="План 0" style="text;html=1;align=center;verticalAlign=middle;whiteSpace=wrap;rounded=0;fontSize=14;textShadow=1;" vertex="1" parent="1">
          <mxGeometry x="90" y="810" width="100" height="180" as="geometry" />
        </mxCell>
        <mxCell id="lrFD3jHJQZdfhSIiQudL-36" value="000000" style="text;html=1;align=center;verticalAlign=middle;whiteSpace=wrap;rounded=0;fontSize=14;" vertex="1" parent="1">
          <mxGeometry x="20" y="990" width="60" height="20" as="geometry" />
        </mxCell>
        <mxCell id="lrFD3jHJQZdfhSIiQudL-37" value="" style="line;strokeWidth=1;html=1;" vertex="1" parent="1">
          <mxGeometry x="20" y="1030" width="80" height="20" as="geometry" />
        </mxCell>
        <mxCell id="lrFD3jHJQZdfhSIiQudL-38" value="" style="endArrow=classic;html=1;rounded=0;entryX=0.5;entryY=1;entryDx=0;entryDy=0;" edge="1" target="lrFD3jHJQZdfhSIiQudL-36" parent="1">
          <mxGeometry width="50" height="50" relative="1" as="geometry">
            <mxPoint x="50" y="1040" as="sourcePoint" />
            <mxPoint x="100" y="990" as="targetPoint" />
          </mxGeometry>
        </mxCell>
        <mxCell id="lrFD3jHJQZdfhSIiQudL-39" value="РА 177010" style="text;html=1;align=center;verticalAlign=middle;whiteSpace=wrap;rounded=0;fontSize=14;" vertex="1" parent="1">
          <mxGeometry x="20" y="1040" width="80" height="30" as="geometry" />
        </mxCell>
        <mxCell id="lrFD3jHJQZdfhSIiQudL-40" value="" style="endArrow=classic;html=1;rounded=0;entryX=0.5;entryY=1;entryDx=0;entryDy=0;" edge="1" parent="1">
          <mxGeometry width="50" height="50" relative="1" as="geometry">
            <mxPoint x="300" y="1040" as="sourcePoint" />
            <mxPoint x="300" y="1010" as="targetPoint" />
          </mxGeometry>
        </mxCell>
        <mxCell id="lrFD3jHJQZdfhSIiQudL-41" value="РД 177014" style="text;html=1;align=center;verticalAlign=middle;whiteSpace=wrap;rounded=0;fontSize=14;" vertex="1" parent="1">
          <mxGeometry x="285" y="1040" width="105" height="30" as="geometry" />
        </mxCell>
        <mxCell id="lrFD3jHJQZdfhSIiQudL-42" value="" style="line;strokeWidth=1;html=1;" vertex="1" parent="1">
          <mxGeometry x="270" y="1030" width="130" height="20" as="geometry" />
        </mxCell>
        <mxCell id="lrFD3jHJQZdfhSIiQudL-43" value="" style="endArrow=classic;html=1;rounded=0;entryX=0.5;entryY=1;entryDx=0;entryDy=0;" edge="1" parent="1">
          <mxGeometry width="50" height="50" relative="1" as="geometry">
            <mxPoint x="370" y="1040" as="sourcePoint" />
            <mxPoint x="370" y="1010" as="targetPoint" />
          </mxGeometry>
        </mxCell>
        <mxCell id="lrFD3jHJQZdfhSIiQudL-44" value="Косвенный доступ к памяти со стороны ПП" style="text;html=1;align=center;verticalAlign=middle;whiteSpace=wrap;rounded=0;fontSize=16;fontStyle=1;fillColor=default;" vertex="1" parent="1">
          <mxGeometry x="60" y="780" width="420" height="70" as="geometry" />
        </mxCell>
        <mxCell id="lrFD3jHJQZdfhSIiQudL-45" value="байт" style="text;html=1;align=center;verticalAlign=middle;whiteSpace=wrap;rounded=0;fontSize=12;fontColor=#999999;" vertex="1" parent="1">
          <mxGeometry x="374" y="1000" width="40" height="40" as="geometry" />
        </mxCell>
        <mxCell id="lrFD3jHJQZdfhSIiQudL-46" value="байт" style="text;html=1;align=center;verticalAlign=middle;whiteSpace=wrap;rounded=0;fontSize=12;fontColor=#999999;" vertex="1" parent="1">
          <mxGeometry x="250" y="1000" width="50" height="40" as="geometry" />
        </mxCell>
        <mxCell id="lrFD3jHJQZdfhSIiQudL-47" value="" style="endArrow=classic;html=1;rounded=0;entryX=0.5;entryY=1;entryDx=0;entryDy=0;" edge="1" parent="1">
          <mxGeometry width="50" height="50" relative="1" as="geometry">
            <mxPoint x="150" y="1040" as="sourcePoint" />
            <mxPoint x="150" y="1010" as="targetPoint" />
          </mxGeometry>
        </mxCell>
        <mxCell id="lrFD3jHJQZdfhSIiQudL-48" value="РД 177012" style="text;html=1;align=center;verticalAlign=middle;whiteSpace=wrap;rounded=0;fontSize=14;" vertex="1" parent="1">
          <mxGeometry x="120" y="1040" width="90" height="30" as="geometry" />
        </mxCell>
        <mxCell id="lrFD3jHJQZdfhSIiQudL-49" value="" style="line;strokeWidth=1;html=1;" vertex="1" parent="1">
          <mxGeometry x="120" y="1030" width="90" height="20" as="geometry" />
        </mxCell>
        <mxCell id="lrFD3jHJQZdfhSIiQudL-52" value="слово" style="text;html=1;align=center;verticalAlign=middle;whiteSpace=wrap;rounded=0;fontSize=12;fontColor=#999999;" vertex="1" parent="1">
          <mxGeometry x="150" y="1000" width="50" height="40" as="geometry" />
        </mxCell>
      </root>
    </mxGraphModel>
  </diagram>
</mxfile>
